<?xml version="1.0" encoding="UTF-8" standalone="no"?>
<!DOCTYPE svg PUBLIC "-//W3C//DTD SVG 1.1//EN"
 "http://www.w3.org/Graphics/SVG/1.1/DTD/svg11.dtd">
<!-- Generated by graphviz version 16.0.0 (20260814.1018)
 -->
<!-- Title: dot Pages: 1 -->
<svg width="1930pt" height="958pt"
 viewBox="0.00 0.00 1930.00 958.00" xmlns="http://www.w3.org/2000/svg" xmlns:xlink="http://www.w3.org/1999/xlink">
<g id="graph0" class="graph" transform="scale(1 1) rotate(0) translate(4 954.2)">
<title>dot</title>
<polygon fill="white" stroke="none" points="-4,4 -4,-954.2 1926,-954.2 1926,4 -4,4"/>
<g id="clust1" class="cluster">
<title>cluster_1</title>
<polygon fill="none" stroke="black" stroke-dasharray="5,2" points="8,-8 8,-942.2 1914,-942.2 1914,-8 8,-8"/>
<text xml:space="preserve" text-anchor="middle" x="961" y="-925.6" font-family="Times,serif" font-size="14.00">graph_1</text>
</g>
<!-- graph_1_node_0 -->
<g id="node1" class="node">
<title>graph_1_node_0</title>
<polygon fill="none" stroke="black" stroke-width="2" points="399.72,-636.1 399.72,-908.9 1522.28,-908.9 1522.28,-636.1 399.72,-636.1"/>
<text xml:space="preserve" text-anchor="middle" x="961" y="-892.3" font-family="Times,serif" font-size="14.00">KERNEL</text>
<polyline fill="none" stroke="black" stroke-width="2" points="399.72,-884.1 1522.28,-884.1"/>
<text xml:space="preserve" text-anchor="middle" x="415.11" y="-867.5" font-family="Times,serif" font-size="14.00">ID</text>
<polyline fill="none" stroke="black" stroke-width="2" points="430.5,-859.3 430.5,-884.1"/>
<text xml:space="preserve" text-anchor="middle" x="473.88" y="-867.5" font-family="Times,serif" font-size="14.00">0 (topoId: 3)</text>
<polyline fill="none" stroke="black" stroke-width="2" points="517.26,-859.3 517.26,-884.1"/>
<text xml:space="preserve" text-anchor="middle" x="1019.77" y="-867.5" font-family="Times,serif" font-size="14.00">_ZN2at6native29vectorized_elementwise_kernelILi4ENS0_13AUnaryFunctorIfffNS0_15binary_internal10MulFunctorIfEEEESt5arrayIPcLm2EEEEviT0_T1_&lt;&lt;&lt;4,128,0&gt;&gt;&gt;</text>
<polyline fill="none" stroke="black" stroke-width="2" points="399.72,-859.3 1522.28,-859.3"/>
<text xml:space="preserve" text-anchor="middle" x="664.74" y="-842.7" font-family="Times,serif" font-size="14.00">node handle</text>
<polyline fill="none" stroke="black" stroke-width="2" points="399.72,-834.5 929.75,-834.5"/>
<text xml:space="preserve" text-anchor="middle" x="664.74" y="-817.9" font-family="Times,serif" font-size="14.00">func handle</text>
<polyline fill="none" stroke="black" stroke-width="2" points="929.75,-809.7 929.75,-859.3"/>
<text xml:space="preserve" text-anchor="middle" x="1225.7" y="-842.7" font-family="Times,serif" font-size="14.00">0x000055E7088233E0</text>
<polyline fill="none" stroke="black" stroke-width="2" points="929.75,-834.5 1521.64,-834.5"/>
<text xml:space="preserve" text-anchor="middle" x="1225.7" y="-817.9" font-family="Times,serif" font-size="14.00">0x000055E7077FE560</text>
<polyline fill="none" stroke="black" stroke-width="2" points="399.72,-809.7 1522.28,-809.7"/>
<text xml:space="preserve" text-anchor="middle" x="595.1" y="-743.5" font-family="Times,serif" font-size="14.00">accessPolicyWindow</text>
<polyline fill="none" stroke="black" stroke-width="2" points="790.47,-685.7 790.47,-809.7"/>
<text xml:space="preserve" text-anchor="middle" x="957.19" y="-793.1" font-family="Times,serif" font-size="14.00">base_ptr</text>
<polyline fill="none" stroke="black" stroke-width="2" points="790.47,-784.9 1123.91,-784.9"/>
<text xml:space="preserve" text-anchor="middle" x="957.19" y="-768.3" font-family="Times,serif" font-size="14.00">num_bytes</text>
<polyline fill="none" stroke="black" stroke-width="2" points="790.47,-760.1 1123.91,-760.1"/>
<text xml:space="preserve" text-anchor="middle" x="957.19" y="-743.5" font-family="Times,serif" font-size="14.00">hitRatio</text>
<polyline fill="none" stroke="black" stroke-width="2" points="790.47,-735.3 1123.91,-735.3"/>
<text xml:space="preserve" text-anchor="middle" x="957.19" y="-718.7" font-family="Times,serif" font-size="14.00">hitProp</text>
<polyline fill="none" stroke="black" stroke-width="2" points="790.47,-710.5 1123.91,-710.5"/>
<text xml:space="preserve" text-anchor="middle" x="957.19" y="-693.9" font-family="Times,serif" font-size="14.00">missProp</text>
<polyline fill="none" stroke="black" stroke-width="2" points="1123.91,-685.7 1123.91,-809.7"/>
<text xml:space="preserve" text-anchor="middle" x="1322.91" y="-793.1" font-family="Times,serif" font-size="14.00">0x0000000000000000</text>
<polyline fill="none" stroke="black" stroke-width="2" points="1123.91,-784.9 1521.91,-784.9"/>
<text xml:space="preserve" text-anchor="middle" x="1322.91" y="-768.3" font-family="Times,serif" font-size="14.00">0</text>
<polyline fill="none" stroke="black" stroke-width="2" points="1123.91,-760.1 1521.91,-760.1"/>
<text xml:space="preserve" text-anchor="middle" x="1322.91" y="-743.5" font-family="Times,serif" font-size="14.00">0.000000</text>
<polyline fill="none" stroke="black" stroke-width="2" points="1123.91,-735.3 1521.91,-735.3"/>
<text xml:space="preserve" text-anchor="middle" x="1322.91" y="-718.7" font-family="Times,serif" font-size="14.00">N</text>
<polyline fill="none" stroke="black" stroke-width="2" points="1123.91,-710.5 1521.91,-710.5"/>
<text xml:space="preserve" text-anchor="middle" x="1322.91" y="-693.9" font-family="Times,serif" font-size="14.00">N</text>
<polyline fill="none" stroke="black" stroke-width="2" points="399.72,-685.7 1522.28,-685.7"/>
<text xml:space="preserve" text-anchor="middle" x="694.87" y="-669.1" font-family="Times,serif" font-size="14.00">cooperative</text>
<polyline fill="none" stroke="black" stroke-width="2" points="990.02,-660.9 990.02,-685.7"/>
<text xml:space="preserve" text-anchor="middle" x="1256.02" y="-669.1" font-family="Times,serif" font-size="14.00">0</text>
<polyline fill="none" stroke="black" stroke-width="2" points="399.72,-660.9 1522.28,-660.9"/>
<text xml:space="preserve" text-anchor="middle" x="688.72" y="-644.3" font-family="Times,serif" font-size="14.00">priority</text>
<polyline fill="none" stroke="black" stroke-width="2" points="977.72,-636.1 977.72,-660.9"/>
<text xml:space="preserve" text-anchor="middle" x="1249.72" y="-644.3" font-family="Times,serif" font-size="14.00">0</text>
</g>
<!-- graph_1_node_1 -->
<g id="node2" class="node">
<title>graph_1_node_1</title>
<polygon fill="none" stroke="black" stroke-width="2" points="16.03,-326.3 16.03,-599.1 951.97,-599.1 951.97,-326.3 16.03,-326.3"/>
<text xml:space="preserve" text-anchor="middle" x="484" y="-582.5" font-family="Times,serif" font-size="14.00">KERNEL</text>
<polyline fill="none" stroke="black" stroke-width="2" points="16.03,-574.3 951.97,-574.3"/>
<text xml:space="preserve" text-anchor="middle" x="31.42" y="-557.7" font-family="Times,serif" font-size="14.00">ID</text>
<polyline fill="none" stroke="black" stroke-width="2" points="46.8,-549.5 46.8,-574.3"/>
<text xml:space="preserve" text-anchor="middle" x="90.19" y="-557.7" font-family="Times,serif" font-size="14.00">1 (topoId: 1)</text>
<polyline fill="none" stroke="black" stroke-width="2" points="133.57,-549.5 133.57,-574.3"/>
<text xml:space="preserve" text-anchor="middle" x="542.77" y="-557.7" font-family="Times,serif" font-size="14.00">_ZN2at6native29vectorized_elementwise_kernelILi4ENS0_21CUDAFunctorOnSelf_addIfEESt5arrayIPcLm2EEEEviT0_T1_&lt;&lt;&lt;4,128,0&gt;&gt;&gt;</text>
<polyline fill="none" stroke="black" stroke-width="2" points="16.03,-549.5 951.97,-549.5"/>
<text xml:space="preserve" text-anchor="middle" x="233.55" y="-532.9" font-family="Times,serif" font-size="14.00">node handle</text>
<polyline fill="none" stroke="black" stroke-width="2" points="16.03,-524.7 451.06,-524.7"/>
<text xml:space="preserve" text-anchor="middle" x="233.55" y="-508.1" font-family="Times,serif" font-size="14.00">func handle</text>
<polyline fill="none" stroke="black" stroke-width="2" points="451.06,-499.9 451.06,-549.5"/>
<text xml:space="preserve" text-anchor="middle" x="701.17" y="-532.9" font-family="Times,serif" font-size="14.00">0x000055E708823AE8</text>
<polyline fill="none" stroke="black" stroke-width="2" points="451.06,-524.7 951.27,-524.7"/>
<text xml:space="preserve" text-anchor="middle" x="701.17" y="-508.1" font-family="Times,serif" font-size="14.00">0x000055E708396E40</text>
<polyline fill="none" stroke="black" stroke-width="2" points="16.03,-499.9 951.97,-499.9"/>
<text xml:space="preserve" text-anchor="middle" x="180.4" y="-433.7" font-family="Times,serif" font-size="14.00">accessPolicyWindow</text>
<polyline fill="none" stroke="black" stroke-width="2" points="344.77,-375.9 344.77,-499.9"/>
<text xml:space="preserve" text-anchor="middle" x="480.5" y="-483.3" font-family="Times,serif" font-size="14.00">base_ptr</text>
<polyline fill="none" stroke="black" stroke-width="2" points="344.77,-475.1 616.22,-475.1"/>
<text xml:space="preserve" text-anchor="middle" x="480.5" y="-458.5" font-family="Times,serif" font-size="14.00">num_bytes</text>
<polyline fill="none" stroke="black" stroke-width="2" points="344.77,-450.3 616.22,-450.3"/>
<text xml:space="preserve" text-anchor="middle" x="480.5" y="-433.7" font-family="Times,serif" font-size="14.00">hitRatio</text>
<polyline fill="none" stroke="black" stroke-width="2" points="344.77,-425.5 616.22,-425.5"/>
<text xml:space="preserve" text-anchor="middle" x="480.5" y="-408.9" font-family="Times,serif" font-size="14.00">hitProp</text>
<polyline fill="none" stroke="black" stroke-width="2" points="344.77,-400.7 616.22,-400.7"/>
<text xml:space="preserve" text-anchor="middle" x="480.5" y="-384.1" font-family="Times,serif" font-size="14.00">missProp</text>
<polyline fill="none" stroke="black" stroke-width="2" points="616.22,-375.9 616.22,-499.9"/>
<text xml:space="preserve" text-anchor="middle" x="783.72" y="-483.3" font-family="Times,serif" font-size="14.00">0x0000000000000000</text>
<polyline fill="none" stroke="black" stroke-width="2" points="616.22,-475.1 951.22,-475.1"/>
<text xml:space="preserve" text-anchor="middle" x="783.72" y="-458.5" font-family="Times,serif" font-size="14.00">0</text>
<polyline fill="none" stroke="black" stroke-width="2" points="616.22,-450.3 951.22,-450.3"/>
<text xml:space="preserve" text-anchor="middle" x="783.72" y="-433.7" font-family="Times,serif" font-size="14.00">0.000000</text>
<polyline fill="none" stroke="black" stroke-width="2" points="616.22,-425.5 951.22,-425.5"/>
<text xml:space="preserve" text-anchor="middle" x="783.72" y="-408.9" font-family="Times,serif" font-size="14.00">N</text>
<polyline fill="none" stroke="black" stroke-width="2" points="616.22,-400.7 951.22,-400.7"/>
<text xml:space="preserve" text-anchor="middle" x="783.72" y="-384.1" font-family="Times,serif" font-size="14.00">N</text>
<polyline fill="none" stroke="black" stroke-width="2" points="16.03,-375.9 951.97,-375.9"/>
<text xml:space="preserve" text-anchor="middle" x="264.18" y="-359.3" font-family="Times,serif" font-size="14.00">cooperative</text>
<polyline fill="none" stroke="black" stroke-width="2" points="512.33,-351.1 512.33,-375.9"/>
<text xml:space="preserve" text-anchor="middle" x="731.83" y="-359.3" font-family="Times,serif" font-size="14.00">0</text>
<polyline fill="none" stroke="black" stroke-width="2" points="16.03,-351.1 951.97,-351.1"/>
<text xml:space="preserve" text-anchor="middle" x="258.53" y="-334.5" font-family="Times,serif" font-size="14.00">priority</text>
<polyline fill="none" stroke="black" stroke-width="2" points="501.02,-326.3 501.02,-351.1"/>
<text xml:space="preserve" text-anchor="middle" x="726.02" y="-334.5" font-family="Times,serif" font-size="14.00">0</text>
</g>
<!-- graph_1_node_0&#45;&gt;graph_1_node_1 -->
<g id="edge1" class="edge">
<title>graph_1_node_0&#45;&gt;graph_1_node_1</title>
<path fill="none" stroke="black" d="M750.74,-635.82C735.08,-625.72 719.26,-615.51 703.54,-605.37"/>
<polygon fill="black" stroke="black" points="705.88,-602.71 695.58,-600.23 702.08,-608.59 705.88,-602.71"/>
<text xml:space="preserve" text-anchor="middle" x="690.81" y="-603.61" font-family="Times,serif" font-size="14.00">0</text>
</g>
<!-- graph_1_node_2 -->
<g id="node3" class="node">
<title>graph_1_node_2</title>
<polygon fill="none" stroke="black" stroke-width="2" points="970.03,-326.3 970.03,-599.1 1905.97,-599.1 1905.97,-326.3 970.03,-326.3"/>
<text xml:space="preserve" text-anchor="middle" x="1438" y="-582.5" font-family="Times,serif" font-size="14.00">KERNEL</text>
<polyline fill="none" stroke="black" stroke-width="2" points="970.03,-574.3 1905.97,-574.3"/>
<text xml:space="preserve" text-anchor="middle" x="985.42" y="-557.7" font-family="Times,serif" font-size="14.00">ID</text>
<polyline fill="none" stroke="black" stroke-width="2" points="1000.8,-549.5 1000.8,-574.3"/>
<text xml:space="preserve" text-anchor="middle" x="1044.19" y="-557.7" font-family="Times,serif" font-size="14.00">2 (topoId: 2)</text>
<polyline fill="none" stroke="black" stroke-width="2" points="1087.57,-549.5 1087.57,-574.3"/>
<text xml:space="preserve" text-anchor="middle" x="1496.77" y="-557.7" font-family="Times,serif" font-size="14.00">_ZN2at6native29vectorized_elementwise_kernelILi4ENS0_21CUDAFunctorOnSelf_addIfEESt5arrayIPcLm2EEEEviT0_T1_&lt;&lt;&lt;4,128,0&gt;&gt;&gt;</text>
<polyline fill="none" stroke="black" stroke-width="2" points="970.03,-549.5 1905.97,-549.5"/>
<text xml:space="preserve" text-anchor="middle" x="1188.55" y="-532.9" font-family="Times,serif" font-size="14.00">node handle</text>
<polyline fill="none" stroke="black" stroke-width="2" points="970.03,-524.7 1407.06,-524.7"/>
<text xml:space="preserve" text-anchor="middle" x="1188.55" y="-508.1" font-family="Times,serif" font-size="14.00">func handle</text>
<polyline fill="none" stroke="black" stroke-width="2" points="1407.06,-499.9 1407.06,-549.5"/>
<text xml:space="preserve" text-anchor="middle" x="1656.11" y="-532.9" font-family="Times,serif" font-size="14.00">0x000055E7088241F0</text>
<polyline fill="none" stroke="black" stroke-width="2" points="1407.06,-524.7 1905.16,-524.7"/>
<text xml:space="preserve" text-anchor="middle" x="1656.11" y="-508.1" font-family="Times,serif" font-size="14.00">0x000055E708396E40</text>
<polyline fill="none" stroke="black" stroke-width="2" points="970.03,-499.9 1905.97,-499.9"/>
<text xml:space="preserve" text-anchor="middle" x="1134.4" y="-433.7" font-family="Times,serif" font-size="14.00">accessPolicyWindow</text>
<polyline fill="none" stroke="black" stroke-width="2" points="1298.77,-375.9 1298.77,-499.9"/>
<text xml:space="preserve" text-anchor="middle" x="1434.5" y="-483.3" font-family="Times,serif" font-size="14.00">base_ptr</text>
<polyline fill="none" stroke="black" stroke-width="2" points="1298.77,-475.1 1570.22,-475.1"/>
<text xml:space="preserve" text-anchor="middle" x="1434.5" y="-458.5" font-family="Times,serif" font-size="14.00">num_bytes</text>
<polyline fill="none" stroke="black" stroke-width="2" points="1298.77,-450.3 1570.22,-450.3"/>
<text xml:space="preserve" text-anchor="middle" x="1434.5" y="-433.7" font-family="Times,serif" font-size="14.00">hitRatio</text>
<polyline fill="none" stroke="black" stroke-width="2" points="1298.77,-425.5 1570.22,-425.5"/>
<text xml:space="preserve" text-anchor="middle" x="1434.5" y="-408.9" font-family="Times,serif" font-size="14.00">hitProp</text>
<polyline fill="none" stroke="black" stroke-width="2" points="1298.77,-400.7 1570.22,-400.7"/>
<text xml:space="preserve" text-anchor="middle" x="1434.5" y="-384.1" font-family="Times,serif" font-size="14.00">missProp</text>
<polyline fill="none" stroke="black" stroke-width="2" points="1570.22,-375.9 1570.22,-499.9"/>
<text xml:space="preserve" text-anchor="middle" x="1737.72" y="-483.3" font-family="Times,serif" font-size="14.00">0x0000000000000000</text>
<polyline fill="none" stroke="black" stroke-width="2" points="1570.22,-475.1 1905.22,-475.1"/>
<text xml:space="preserve" text-anchor="middle" x="1737.72" y="-458.5" font-family="Times,serif" font-size="14.00">0</text>
<polyline fill="none" stroke="black" stroke-width="2" points="1570.22,-450.3 1905.22,-450.3"/>
<text xml:space="preserve" text-anchor="middle" x="1737.72" y="-433.7" font-family="Times,serif" font-size="14.00">0.000000</text>
<polyline fill="none" stroke="black" stroke-width="2" points="1570.22,-425.5 1905.22,-425.5"/>
<text xml:space="preserve" text-anchor="middle" x="1737.72" y="-408.9" font-family="Times,serif" font-size="14.00">N</text>
<polyline fill="none" stroke="black" stroke-width="2" points="1570.22,-400.7 1905.22,-400.7"/>
<text xml:space="preserve" text-anchor="middle" x="1737.72" y="-384.1" font-family="Times,serif" font-size="14.00">N</text>
<polyline fill="none" stroke="black" stroke-width="2" points="970.03,-375.9 1905.97,-375.9"/>
<text xml:space="preserve" text-anchor="middle" x="1218.18" y="-359.3" font-family="Times,serif" font-size="14.00">cooperative</text>
<polyline fill="none" stroke="black" stroke-width="2" points="1466.33,-351.1 1466.33,-375.9"/>
<text xml:space="preserve" text-anchor="middle" x="1685.83" y="-359.3" font-family="Times,serif" font-size="14.00">0</text>
<polyline fill="none" stroke="black" stroke-width="2" points="970.03,-351.1 1905.97,-351.1"/>
<text xml:space="preserve" text-anchor="middle" x="1212.53" y="-334.5" font-family="Times,serif" font-size="14.00">priority</text>
<polyline fill="none" stroke="black" stroke-width="2" points="1455.02,-326.3 1455.02,-351.1"/>
<text xml:space="preserve" text-anchor="middle" x="1680.02" y="-334.5" font-family="Times,serif" font-size="14.00">0</text>
</g>
<!-- graph_1_node_0&#45;&gt;graph_1_node_2 -->
<g id="edge2" class="edge">
<title>graph_1_node_0&#45;&gt;graph_1_node_2</title>
<path fill="none" stroke="black" d="M1171.26,-635.82C1186.92,-625.72 1202.74,-615.51 1218.46,-605.37"/>
<polygon fill="black" stroke="black" points="1219.92,-608.59 1226.42,-600.23 1216.12,-602.71 1219.92,-608.59"/>
<text xml:space="preserve" text-anchor="middle" x="1224.19" y="-603.61" font-family="Times,serif" font-size="14.00">0</text>
</g>
<!-- graph_1_node_3 -->
<g id="node4" class="node">
<title>graph_1_node_3</title>
<polygon fill="none" stroke="black" stroke-width="2" points="512.86,-16.5 512.86,-289.3 1409.14,-289.3 1409.14,-16.5 512.86,-16.5"/>
<text xml:space="preserve" text-anchor="middle" x="961" y="-272.7" font-family="Times,serif" font-size="14.00">KERNEL</text>
<polyline fill="none" stroke="black" stroke-width="2" points="512.86,-264.5 1409.14,-264.5"/>
<text xml:space="preserve" text-anchor="middle" x="528.25" y="-247.9" font-family="Times,serif" font-size="14.00">ID</text>
<polyline fill="none" stroke="black" stroke-width="2" points="543.63,-239.7 543.63,-264.5"/>
<text xml:space="preserve" text-anchor="middle" x="587.02" y="-247.9" font-family="Times,serif" font-size="14.00">3 (topoId: 0)</text>
<polyline fill="none" stroke="black" stroke-width="2" points="630.4,-239.7 630.4,-264.5"/>
<text xml:space="preserve" text-anchor="middle" x="1019.77" y="-247.9" font-family="Times,serif" font-size="14.00">_ZN2at6native29vectorized_elementwise_kernelILi4ENS0_15CUDAFunctor_addIfEESt5arrayIPcLm3EEEEviT0_T1_&lt;&lt;&lt;4,128,0&gt;&gt;&gt;</text>
<polyline fill="none" stroke="black" stroke-width="2" points="512.86,-239.7 1409.14,-239.7"/>
<text xml:space="preserve" text-anchor="middle" x="721.38" y="-223.1" font-family="Times,serif" font-size="14.00">node handle</text>
<polyline fill="none" stroke="black" stroke-width="2" points="512.86,-214.9 929.89,-214.9"/>
<text xml:space="preserve" text-anchor="middle" x="721.38" y="-198.3" font-family="Times,serif" font-size="14.00">func handle</text>
<polyline fill="none" stroke="black" stroke-width="2" points="929.89,-190.1 929.89,-239.7"/>
<text xml:space="preserve" text-anchor="middle" x="1169.34" y="-223.1" font-family="Times,serif" font-size="14.00">0x000055E7088248F8</text>
<polyline fill="none" stroke="black" stroke-width="2" points="929.89,-214.9 1408.78,-214.9"/>
<text xml:space="preserve" text-anchor="middle" x="1169.34" y="-198.3" font-family="Times,serif" font-size="14.00">0x000055E70835B620</text>
<polyline fill="none" stroke="black" stroke-width="2" points="512.86,-190.1 1409.14,-190.1"/>
<text xml:space="preserve" text-anchor="middle" x="670.73" y="-123.9" font-family="Times,serif" font-size="14.00">accessPolicyWindow</text>
<polyline fill="none" stroke="black" stroke-width="2" points="828.61,-66.1 828.61,-190.1"/>
<text xml:space="preserve" text-anchor="middle" x="957.33" y="-173.5" font-family="Times,serif" font-size="14.00">base_ptr</text>
<polyline fill="none" stroke="black" stroke-width="2" points="828.61,-165.3 1086.05,-165.3"/>
<text xml:space="preserve" text-anchor="middle" x="957.33" y="-148.7" font-family="Times,serif" font-size="14.00">num_bytes</text>
<polyline fill="none" stroke="black" stroke-width="2" points="828.61,-140.5 1086.05,-140.5"/>
<text xml:space="preserve" text-anchor="middle" x="957.33" y="-123.9" font-family="Times,serif" font-size="14.00">hitRatio</text>
<polyline fill="none" stroke="black" stroke-width="2" points="828.61,-115.7 1086.05,-115.7"/>
<text xml:space="preserve" text-anchor="middle" x="957.33" y="-99.1" font-family="Times,serif" font-size="14.00">hitProp</text>
<polyline fill="none" stroke="black" stroke-width="2" points="828.61,-90.9 1086.05,-90.9"/>
<text xml:space="preserve" text-anchor="middle" x="957.33" y="-74.3" font-family="Times,serif" font-size="14.00">missProp</text>
<polyline fill="none" stroke="black" stroke-width="2" points="1086.05,-66.1 1086.05,-190.1"/>
<text xml:space="preserve" text-anchor="middle" x="1247.55" y="-173.5" font-family="Times,serif" font-size="14.00">0x0000000000000000</text>
<polyline fill="none" stroke="black" stroke-width="2" points="1086.05,-165.3 1409.05,-165.3"/>
<text xml:space="preserve" text-anchor="middle" x="1247.55" y="-148.7" font-family="Times,serif" font-size="14.00">0</text>
<polyline fill="none" stroke="black" stroke-width="2" points="1086.05,-140.5 1409.05,-140.5"/>
<text xml:space="preserve" text-anchor="middle" x="1247.55" y="-123.9" font-family="Times,serif" font-size="14.00">0.000000</text>
<polyline fill="none" stroke="black" stroke-width="2" points="1086.05,-115.7 1409.05,-115.7"/>
<text xml:space="preserve" text-anchor="middle" x="1247.55" y="-99.1" font-family="Times,serif" font-size="14.00">N</text>
<polyline fill="none" stroke="black" stroke-width="2" points="1086.05,-90.9 1409.05,-90.9"/>
<text xml:space="preserve" text-anchor="middle" x="1247.55" y="-74.3" font-family="Times,serif" font-size="14.00">N</text>
<polyline fill="none" stroke="black" stroke-width="2" points="512.86,-66.1 1409.14,-66.1"/>
<text xml:space="preserve" text-anchor="middle" x="751.01" y="-49.5" font-family="Times,serif" font-size="14.00">cooperative</text>
<polyline fill="none" stroke="black" stroke-width="2" points="989.16,-41.3 989.16,-66.1"/>
<text xml:space="preserve" text-anchor="middle" x="1198.66" y="-49.5" font-family="Times,serif" font-size="14.00">0</text>
<polyline fill="none" stroke="black" stroke-width="2" points="512.86,-41.3 1409.14,-41.3"/>
<text xml:space="preserve" text-anchor="middle" x="745.36" y="-24.7" font-family="Times,serif" font-size="14.00">priority</text>
<polyline fill="none" stroke="black" stroke-width="2" points="977.85,-16.5 977.85,-41.3"/>
<text xml:space="preserve" text-anchor="middle" x="1193.35" y="-24.7" font-family="Times,serif" font-size="14.00">0</text>
</g>
<!-- graph_1_node_1&#45;&gt;graph_1_node_3 -->
<g id="edge3" class="edge">
<title>graph_1_node_1&#45;&gt;graph_1_node_3</title>
<path fill="none" stroke="black" d="M694.26,-326.02C709.92,-315.92 725.74,-305.71 741.46,-295.57"/>
<polygon fill="black" stroke="black" points="742.92,-298.79 749.42,-290.43 739.12,-292.91 742.92,-298.79"/>
<text xml:space="preserve" text-anchor="middle" x="747.19" y="-293.81" font-family="Times,serif" font-size="14.00">0</text>
</g>
<!-- graph_1_node_2&#45;&gt;graph_1_node_3 -->
<g id="edge4" class="edge">
<title>graph_1_node_2&#45;&gt;graph_1_node_3</title>
<path fill="none" stroke="black" d="M1227.74,-326.02C1212.08,-315.92 1196.26,-305.71 1180.54,-295.57"/>
<polygon fill="black" stroke="black" points="1182.88,-292.91 1172.58,-290.43 1179.08,-298.79 1182.88,-292.91"/>
<text xml:space="preserve" text-anchor="middle" x="1167.81" y="-293.81" font-family="Times,serif" font-size="14.00">1</text>
</g>
</g>
</svg>
